<svg xmlns="http://www.w3.org/2000/svg" viewBox="0 0 500.04 500.02"><defs><style>.cls-1{fill: url(#myGradient)}</style><linearGradient id="myGradient">
<stop offset="5%" stop-color="#4E7EDF" />
<stop offset="95%" stop-color="#71B6F4" />
</linearGradient></defs><g id="Camada_2" data-name="Camada 2"><g id="Verso"><g id="Conversação_Validade" data-name="Conversação / Validade"><g id="Camada_28" data-name="Camada 28"><path class="cls-1" d="M250,0C112,0,0,111.93,0,250S111.94,500,250,500,500,388.09,500,250,388.11,0,250,0Zm0,74.76a82.7,82.7,0,1,1-82.68,82.69A82.7,82.7,0,0,1,250,74.76ZM250,434.66a183.48,183.48,0,0,1-119.49-44.07,35.22,35.22,0,0,1-12.37-26.78,83.41,83.41,0,0,1,83.81-83.38h96.23a83.28,83.28,0,0,1,83.67,83.38,35.11,35.11,0,0,1-12.36,26.77A183.4,183.4,0,0,1,250,434.66Z"/></g></g></g></g></svg>